<svg width="49" height="48" viewBox="0 0 49 48" fill="none" xmlns="http://www.w3.org/2000/svg">
<path d="M29.5044 19.8026C27.8155 19.8026 26.4522 18.4758 26.4522 16.8322V6.9309C26.4522 5.28729 27.8155 3.96051 29.5044 3.96051C31.1932 3.96051 32.5565 5.28729 32.5565 6.9309V16.8322C32.5565 18.4758 31.1932 19.8026 29.5044 19.8026Z" stroke="#E1F033" stroke-width="4" stroke-linecap="round" stroke-linejoin="round"/>
<path d="M41.713 19.8026H38.6609V16.8322C38.6609 15.1886 40.0242 13.8618 41.713 13.8618C43.4019 13.8618 44.7652 15.1886 44.7652 16.8322C44.7652 18.4759 43.4019 19.8026 41.713 19.8026Z" stroke="white" stroke-width="4" stroke-linecap="round" stroke-linejoin="round"/>
<path d="M19.3304 27.7237C21.0193 27.7237 22.3826 29.0505 22.3826 30.6941V40.5954C22.3826 42.239 21.0193 43.5658 19.3304 43.5658C17.6416 43.5658 16.2783 42.239 16.2783 40.5954V30.6941C16.2783 29.0505 17.6416 27.7237 19.3304 27.7237Z" stroke="#A612CB" stroke-width="4" stroke-linecap="round" stroke-linejoin="round"/>
<path d="M7.12175 27.7237H10.1739V30.6941C10.1739 32.3377 8.81062 33.6645 7.12175 33.6645C5.43288 33.6645 4.06958 32.3377 4.06958 30.6941C4.06958 29.0505 5.43288 27.7237 7.12175 27.7237Z" stroke="white" stroke-width="4" stroke-linecap="round" stroke-linejoin="round"/>
<path d="M28.487 28.7138C28.487 27.0702 29.8503 25.7434 31.5391 25.7434H41.713C43.4019 25.7434 44.7652 27.0702 44.7652 28.7138C44.7652 30.3574 43.4019 31.6842 41.713 31.6842H31.5391C29.8503 31.6842 28.487 30.3574 28.487 28.7138Z" stroke="#F34848" stroke-width="4" stroke-linecap="round" stroke-linejoin="round"/>
<path d="M31.5391 37.625H28.487V40.5954C28.487 42.239 29.8503 43.5658 31.5391 43.5658C33.228 43.5658 34.5913 42.239 34.5913 40.5954C34.5913 38.9518 33.228 37.625 31.5391 37.625Z" stroke="white" stroke-width="4" stroke-linecap="round" stroke-linejoin="round"/>
<path d="M20.3478 18.8125C20.3478 17.1689 18.9845 15.8421 17.2957 15.8421H7.12175C5.43288 15.8421 4.06958 17.1689 4.06958 18.8125C4.06958 20.4561 5.43288 21.7829 7.12175 21.7829H17.2957C18.9845 21.7829 20.3478 20.4561 20.3478 18.8125Z" stroke="#F4F2FE" stroke-width="4" stroke-linecap="round" stroke-linejoin="round"/>
<path d="M17.2956 9.9013H20.3478V6.9309C20.3478 5.28729 18.9845 3.96051 17.2956 3.96051C15.6068 3.96051 14.2435 5.28729 14.2435 6.9309C14.2435 8.57452 15.6068 9.9013 17.2956 9.9013Z" stroke="white" stroke-width="4" stroke-linecap="round" stroke-linejoin="round"/>
</svg>
